<svg xmlns="http://www.w3.org/2000/svg" viewBox="0 0 512 512" width="512" height="512">
  <defs>
    <linearGradient id="bg" x1="0%" y1="0%" x2="100%" y2="100%">
      <stop offset="0%" stop-color="#0f172a" />
      <stop offset="50%" stop-color="#090d14" />
      <stop offset="100%" stop-color="#020617" />
    </linearGradient>
    <linearGradient id="emerald" x1="0%" y1="0%" x2="100%" y2="100%">
      <stop offset="0%" stop-color="#34d399" />
      <stop offset="50%" stop-color="#10b981" />
      <stop offset="100%" stop-color="#059669" />
    </linearGradient>
    <linearGradient id="cyan" x1="0%" y1="0%" x2="100%" y2="100%">
      <stop offset="0%" stop-color="#38bdf8" />
      <stop offset="100%" stop-color="#0284c7" />
    </linearGradient>
    <filter id="glow" x="-20%" y="-20%" width="140%" height="140%">
      <feGaussianBlur stdDeviation="12" result="blur" />
      <feComposite in="SourceGraphic" in2="blur" operator="over" />
    </filter>
  </defs>

  <!-- Background with rounded corners -->
  <rect width="512" height="512" rx="112" fill="url(#bg)" stroke="rgba(255,255,255,0.12)" stroke-width="4" />

  <!-- Outer hexagonal / tech ring -->
  <circle cx="256" cy="256" r="185" fill="none" stroke="rgba(16,185,129,0.18)" stroke-width="6" stroke-dasharray="16 8" />
  <circle cx="256" cy="256" r="160" fill="none" stroke="rgba(56,189,248,0.15)" stroke-width="3" />

  <!-- Center dumbbell / barbell icon with glow -->
  <g filter="url(#glow)">
    <!-- Barbell Shaft -->
    <rect x="136" y="240" width="240" height="32" rx="16" fill="url(#emerald)" />

    <!-- Left Plate Outer -->
    <rect x="168" y="156" width="32" height="200" rx="12" fill="url(#emerald)" />
    <rect x="136" y="186" width="24" height="140" rx="10" fill="url(#cyan)" />
    <rect x="112" y="206" width="18" height="100" rx="8" fill="#34d399" opacity="0.8" />

    <!-- Right Plate Outer -->
    <rect x="312" y="156" width="32" height="200" rx="12" fill="url(#emerald)" />
    <rect x="352" y="186" width="24" height="140" rx="10" fill="url(#cyan)" />
    <rect x="382" y="206" width="18" height="100" rx="8" fill="#34d399" opacity="0.8" />

    <!-- Knurling texture on center bar -->
    <line x1="236" y1="244" x2="236" y2="268" stroke="#090d14" stroke-width="3" stroke-linecap="round" />
    <line x1="246" y1="244" x2="246" y2="268" stroke="#090d14" stroke-width="3" stroke-linecap="round" />
    <line x1="256" y1="244" x2="256" y2="268" stroke="#090d14" stroke-width="3" stroke-linecap="round" />
    <line x1="266" y1="244" x2="266" y2="268" stroke="#090d14" stroke-width="3" stroke-linecap="round" />
    <line x1="276" y1="244" x2="276" y2="268" stroke="#090d14" stroke-width="3" stroke-linecap="round" />
  </g>

  <!-- Accent Pulse Dot -->
  <circle cx="256" cy="96" r="8" fill="#10b981" filter="url(#glow)" />
</svg>